<svg width="21" height="33" viewBox="0 0 21 33" fill="none" xmlns="http://www.w3.org/2000/svg">
<path fill-rule="evenodd" clip-rule="evenodd" d="M10.4995 0.3125C10.8062 0.3125 11.1003 0.434319 11.3171 0.651158C11.5339 0.867997 11.6558 1.16209 11.6558 1.46875V28.7401L18.9309 21.4626C19.148 21.2455 19.4425 21.1235 19.7495 21.1235C20.0566 21.1235 20.351 21.2455 20.5681 21.4626C20.7852 21.6797 20.9072 21.9742 20.9072 22.2812C20.9072 22.5883 20.7852 22.8828 20.5681 23.0999L11.3181 32.3499C11.2107 32.4576 11.0831 32.543 10.9427 32.6013C10.8022 32.6596 10.6516 32.6896 10.4995 32.6896C10.3474 32.6896 10.1968 32.6596 10.0564 32.6013C9.91588 32.543 9.78829 32.4576 9.68088 32.3499L0.430882 23.0999C0.213769 22.8828 0.0917969 22.5883 0.0917969 22.2812C0.0917969 21.9742 0.213769 21.6797 0.430882 21.4626C0.647995 21.2455 0.942463 21.1235 1.24951 21.1235C1.55655 21.1235 1.85102 21.2455 2.06813 21.4626L9.34326 28.7401V1.46875C9.34326 1.16209 9.46508 0.867997 9.68192 0.651158C9.89876 0.434319 10.1929 0.3125 10.4995 0.3125Z" fill="#154036"/>
</svg>
