<svg width="67" height="67" viewBox="0 0 67 67" fill="none" xmlns="http://www.w3.org/2000/svg">
<path fill-rule="evenodd" clip-rule="evenodd" d="M33.5005 3.48951C26.3719 3.48584 19.4749 6.01984 14.0443 10.6377C8.61365 15.2557 5.00421 21.6559 3.86225 28.6924C2.72029 35.7289 4.12038 42.9421 7.81183 49.0405C11.5033 55.1388 17.245 59.724 24.0088 61.9749C25.5163 62.2541 26.0607 61.3328 26.0607 60.5791C26.0607 59.8253 26.0607 57.9828 26.0607 55.4843C17.6857 57.2989 15.9549 51.4643 15.9549 51.4643C15.4009 49.6182 14.1957 48.036 12.563 47.0116C9.84114 45.1551 12.7724 45.183 12.7724 45.183C13.7232 45.3161 14.631 45.6644 15.4268 46.2014C16.2227 46.7384 16.8854 47.4499 17.3647 48.2818C20.0447 52.8741 24.3438 51.5481 26.1026 50.7803C26.2415 49.2555 26.9195 47.8301 28.0149 46.7603C21.3428 46.0066 14.3357 43.4383 14.3357 31.9366C14.2915 28.9528 15.4017 26.0673 17.4345 23.8826C16.5109 21.2954 16.6159 18.4524 17.7276 15.9403C17.7276 15.9403 20.2401 15.1308 25.977 19.0112C30.8937 17.6712 36.0794 17.6712 40.9961 19.0112C46.733 15.1308 49.2455 15.9403 49.2455 15.9403C50.3488 18.4544 50.4536 21.2941 49.5386 23.8826C51.5676 26.0687 52.6729 28.9545 52.6234 31.9366C52.6234 43.4662 45.6443 45.9926 38.9303 46.7464C39.6507 47.4763 40.2056 48.3527 40.5572 49.3161C40.9089 50.2795 41.049 51.3073 40.9682 52.3297C40.9682 56.3358 40.9682 59.5741 40.9682 60.5651C40.9682 61.5562 41.5126 62.296 43.0341 61.961C49.791 59.7013 55.5236 55.1113 59.2063 49.0122C62.8891 42.913 64.2818 35.7025 63.1353 28.6706C61.9887 21.6387 58.3778 15.244 52.9484 10.6306C47.519 6.01713 40.6253 3.48584 33.5005 3.48951Z" stroke="black" stroke-width="1.77083" stroke-linecap="round" stroke-linejoin="round"/>
</svg>
