<svg width="34" height="33" viewBox="0 0 34 33" fill="none" xmlns="http://www.w3.org/2000/svg">
<path fill-rule="evenodd" clip-rule="evenodd" d="M17.0007 1.71875C13.3832 1.71695 9.8832 2.96504 7.12737 5.23953C4.37154 7.51402 2.53989 10.6664 1.96038 14.1321C1.38088 17.5979 2.09138 21.1506 3.96465 24.1543C5.83792 27.158 8.75163 29.4163 12.184 30.525C12.949 30.6625 13.2253 30.2088 13.2253 29.8375C13.2253 29.4663 13.2253 28.5588 13.2253 27.3281C8.97528 28.2219 8.09695 25.3481 8.09695 25.3481C7.81583 24.4389 7.2042 23.6596 6.3757 23.155C4.99445 22.2406 6.48195 22.2544 6.48195 22.2544C6.96443 22.3199 7.42514 22.4915 7.82898 22.756C8.23283 23.0204 8.56916 23.3709 8.81236 23.7806C10.1724 26.0425 12.354 25.3894 13.2465 25.0113C13.317 24.2602 13.6611 23.5582 14.2169 23.0313C10.8311 22.66 7.27528 21.395 7.27528 15.73C7.25284 14.2604 7.81622 12.8392 8.84778 11.7631C8.37912 10.4888 8.43236 9.08855 8.99653 7.85125C8.99653 7.85125 10.2715 7.4525 13.1828 9.36375C15.6778 8.70374 18.3094 8.70374 20.8044 9.36375C23.7157 7.4525 24.9907 7.85125 24.9907 7.85125C25.5506 9.0895 25.6038 10.4882 25.1394 11.7631C26.1691 12.8398 26.73 14.2612 26.7049 15.73C26.7049 21.4088 23.1632 22.6531 19.7561 23.0244C20.1217 23.3839 20.4033 23.8156 20.5817 24.2901C20.7602 24.7646 20.8313 25.2708 20.7903 25.7744C20.7903 27.7475 20.7903 29.3425 20.7903 29.8306C20.7903 30.3188 21.0665 30.6831 21.8386 30.5181C25.2675 29.4051 28.1766 27.1444 30.0454 24.1404C31.9143 21.1363 32.621 17.5849 32.0392 14.1214C31.4574 10.6579 29.625 7.5083 26.8698 5.236C24.1145 2.9637 20.6163 1.71694 17.0007 1.71875Z" stroke="#F5F5F5" stroke-width="1.5" stroke-linecap="round" stroke-linejoin="round"/>
</svg>
