<svg width="51" height="51" viewBox="0 0 51 51" fill="none" xmlns="http://www.w3.org/2000/svg">
<path d="M43.1922 43.1923H35.7468V31.5301C35.7468 28.7496 35.6966 25.1692 31.8734 25.1692C27.9958 25.1692 27.4011 28.201 27.4011 31.3249V43.1923H19.9558V19.2104H27.1038V22.4893H27.2043C28.6616 20.0019 31.3751 18.5111 34.2561 18.6158C41.8019 18.6158 43.1964 23.578 43.1964 30.0393L43.1922 43.1881V43.1923ZM11.5556 15.9316C10.4119 15.9261 9.31654 15.4696 8.50741 14.6613C7.69828 13.8529 7.24073 12.758 7.23413 11.6143C7.23413 9.24419 9.1855 7.29281 11.5556 7.29281C13.9258 7.29281 15.8729 9.24419 15.8771 11.6143C15.8771 13.9844 13.9258 15.9316 11.5556 15.9316ZM15.2783 43.1923H7.82456V19.2104H15.2783V43.1923ZM46.8981 0.375062H4.08094C3.11007 0.369423 2.1762 0.747162 1.48227 1.42619C0.788344 2.10522 0.39043 3.03067 0.375 4.00144V46.9987C0.39043 47.9695 0.788344 48.8949 1.48227 49.5739C2.1762 50.253 3.11007 50.6307 4.08094 50.6251H46.9023C47.8754 50.6329 48.8123 50.2565 49.5094 49.5774C50.2065 48.8984 50.6074 47.9717 50.625 46.9987V3.99725C50.6074 3.02503 50.2062 2.09918 49.5089 1.42147C48.8116 0.743766 47.8746 0.369145 46.9023 0.379249L46.8981 0.375062Z" fill="#0A66C2"/>
</svg>
